<?xml version="1.0" standalone="no"?>
<!DOCTYPE svg PUBLIC "-//W3C//DTD SVG 20010904//EN"
 "http://www.w3.org/TR/2001/REC-SVG-20010904/DTD/svg10.dtd">
<svg version="1.0" xmlns="http://www.w3.org/2000/svg"
 width="306.000000pt" height="306.000000pt" viewBox="0 0 306.000000 306.000000"
 preserveAspectRatio="xMidYMid meet">
<metadata>
Created by potrace 1.14, written by Peter Selinger 2001-2017
</metadata>
<g transform="translate(0.000000,306.000000) scale(0.100000,-0.100000)"
fill="#000000" stroke="none">
<path d="M531 2637 c-29 -100 -54 -191 -56 -202 -2 -11 -4 -20 -5 -20 -1 0 -3
-10 -6 -22 -5 -27 -36 -25 449 -25 170 0 277 -3 277 -9 0 -8 -96 -302 -270
-829 -129 -389 -239 -736 -237 -745 1 -5 19 -10 39 -10 20 1 35 -2 32 -6 -2
-4 0 -11 6 -14 6 -4 9 -1 8 6 -4 18 305 17 327 -1 13 -11 15 -10 10 1 -4 11 7
14 52 13 40 -1 57 -5 55 -13 -1 -7 2 -9 8 -6 8 5 6 13 -6 26 -11 12 -13 19 -5
19 7 0 9 5 6 10 -3 6 -3 16 2 23 4 6 9 21 10 31 2 11 8 25 13 31 5 7 7 15 3
18 -3 4 -1 7 6 7 7 0 10 4 7 8 -7 11 15 82 25 82 5 0 5 7 2 17 -4 11 -3 14 5
9 8 -5 10 -2 6 9 -4 8 -1 21 5 29 6 7 8 16 4 19 -3 4 0 7 8 7 11 0 11 2 -1 10
-12 8 -12 10 5 10 17 0 17 2 5 10 -9 6 -11 10 -3 10 7 0 10 7 7 15 -3 8 -2 20
2 27 5 7 9 15 10 18 0 3 3 12 7 20 3 8 15 46 27 84 11 38 25 76 32 83 6 7 8
16 5 19 -3 3 1 17 8 31 8 15 11 31 8 36 -4 6 1 8 12 3 15 -5 16 -4 5 9 -11 13
-9 19 6 37 11 12 14 18 7 15 -7 -5 -9 0 -6 13 3 11 8 20 12 20 3 0 6 16 5 35
-1 19 2 35 7 35 5 0 8 3 8 8 -4 22 2 42 11 37 5 -3 7 0 4 9 -6 15 31 130 50
155 9 12 8 13 -3 7 -9 -6 -8 -1 3 16 9 14 13 28 9 31 -3 4 -1 7 6 7 8 0 10 7
6 20 -4 11 -2 20 4 20 6 0 10 3 10 8 -3 15 14 73 22 78 5 3 7 10 3 15 -3 5 -2
15 3 22 11 14 38 98 35 110 -1 4 3 7 8 7 5 0 9 5 7 11 -1 6 4 14 12 17 9 3 11
0 6 -8 -5 -9 -4 -11 3 -6 17 10 15 26 -4 26 -11 0 -14 5 -10 16 3 9 6 20 6 25
0 6 4 8 8 5 5 -3 9 8 10 25 0 17 5 36 11 43 6 7 8 15 5 18 -3 4 164 5 370 5
207 -1 376 2 376 6 0 4 10 12 23 17 12 5 17 9 10 9 -13 1 -5 41 9 41 5 0 7 4
3 9 -3 5 0 15 7 23 7 7 13 19 14 26 2 30 5 34 19 28 12 -4 14 -2 7 10 -10 18
14 78 27 69 5 -2 8 3 8 13 -1 31 15 72 26 65 6 -3 7 -1 3 5 -4 6 -1 22 6 34 7
13 11 26 10 31 -1 4 2 7 6 7 5 0 9 6 9 13 0 6 4 20 8 30 7 16 -46 17 -1027 17
l-1034 0 -53 -183z"/>
<path d="M2595 2621 c-3 -5 -2 -12 3 -15 5 -3 9 1 9 9 0 17 -3 19 -12 6z"/>
<path d="M2575 2531 c-3 -5 -2 -12 3 -15 5 -3 9 1 9 9 0 17 -3 19 -12 6z"/>
<path d="M2526 2498 c3 -5 10 -6 15 -3 13 9 11 12 -6 12 -8 0 -12 -4 -9 -9z"/>
<path d="M2505 2400 c-3 -6 1 -7 9 -4 18 7 21 14 7 14 -6 0 -13 -4 -16 -10z"/>
<path d="M715 2340 c3 -5 8 -10 11 -10 2 0 4 5 4 10 0 6 -5 10 -11 10 -5 0 -7
-4 -4 -10z"/>
<path d="M1875 2340 c3 -5 8 -10 11 -10 2 0 4 5 4 10 0 6 -5 10 -11 10 -5 0
-7 -4 -4 -10z"/>
<path d="M2315 2340 c3 -5 8 -10 11 -10 2 0 4 5 4 10 0 6 -5 10 -11 10 -5 0
-7 -4 -4 -10z"/>
<path d="M1710 2276 c7 -7 13 -7 20 0 6 6 3 10 -10 10 -13 0 -16 -4 -10 -10z"/>
<path d="M1871 2082 c-19 -59 -51 -159 -71 -222 -21 -63 -57 -176 -80 -250
-23 -74 -46 -144 -50 -155 -5 -11 -34 -101 -65 -200 -32 -99 -64 -200 -72
-225 -8 -25 -16 -49 -17 -55 -2 -5 -6 -17 -9 -25 -20 -54 -48 -152 -44 -156 2
-3 -4 -27 -14 -55 -10 -27 -16 -49 -13 -49 4 0 2 -6 -3 -12 -6 -7 -13 -26 -17
-43 -4 -16 -13 -33 -19 -37 -7 -4 -177 -8 -378 -8 l-366 0 -43 -98 c-23 -53
-51 -117 -63 -142 -56 -126 -86 -200 -79 -201 4 -1 10 -1 15 0 4 0 7 -2 7 -6
0 -5 11 -8 25 -8 14 0 25 2 25 5 0 3 9 6 20 6 11 0 20 -3 20 -7 0 -4 8 -6 18
-5 10 0 16 -5 14 -14 -3 -11 0 -11 15 3 15 13 22 14 33 4 9 -8 11 -8 6 0 -3 6
-2 14 4 18 5 3 10 3 10 -2 0 -10 62 -9 78 1 7 4 12 3 12 -2 0 -5 15 -7 33 -6
17 1 32 3 32 4 0 6 108 3 112 -3 2 -4 12 -3 21 1 24 12 74 6 83 -10 6 -9 9 -7
9 7 0 17 2 17 10 5 9 -13 11 -13 20 0 6 9 10 10 10 3 0 -8 9 -9 31 -3 25 7 30
6 25 -5 -3 -8 0 -17 6 -21 6 -4 8 -3 5 3 -4 6 0 16 8 23 12 10 15 10 15 0 0
-9 3 -10 13 -1 8 6 17 8 21 4 10 -11 46 -11 46 0 0 5 6 4 14 -2 11 -9 15 -9
19 1 4 10 6 10 6 1 1 -7 6 -13 12 -13 5 0 7 6 3 13 -5 8 -2 8 9 -2 9 -7 17
-10 17 -5 0 5 18 9 40 9 29 1 40 -3 40 -15 1 -12 4 -11 15 4 11 14 15 16 15 5
0 -8 3 -10 8 -4 4 6 41 10 82 10 56 1 78 -3 88 -15 9 -12 12 -12 10 -1 -2 11
15 14 79 15 53 1 79 -2 75 -9 -3 -5 2 -4 11 4 14 11 17 11 17 0 0 -9 3 -10 8
-4 9 13 53 15 45 2 -4 -6 -1 -7 8 -1 20 12 39 14 39 3 0 -5 5 -9 11 -9 5 0 8
4 5 8 -2 4 13 8 34 7 21 0 36 -4 32 -9 -3 -5 1 -5 9 0 18 11 89 13 89 1 0 -4
6 -5 12 0 18 11 88 12 88 2 0 -5 5 -9 11 -9 5 0 8 3 6 8 -3 4 10 8 29 8 19 1
34 -3 34 -7 0 -5 5 -9 11 -9 5 0 8 4 5 8 -6 11 65 8 83 -3 10 -5 12 -4 7 3 -4
7 -3 12 3 12 5 0 13 -5 16 -10 5 -8 11 -7 21 1 11 9 14 8 14 -2 0 -9 3 -10 8
-4 4 6 17 10 28 9 12 -1 32 5 45 12 13 7 18 13 12 14 -7 0 -13 5 -13 11 0 5 4
7 10 4 6 -4 7 1 3 11 -5 14 -3 16 13 10 15 -6 17 -5 7 5 -7 7 -13 17 -13 22 0
4 6 5 13 1 9 -6 9 -5 0 7 -10 12 -9 21 1 41 8 15 12 29 9 32 -3 2 -1 11 3 18
5 7 10 22 11 33 2 11 7 29 12 40 5 11 15 44 21 73 7 28 15 52 18 52 4 0 7 15
7 32 l0 33 -360 1 c-198 1 -364 2 -369 3 -5 0 -1 11 10 23 10 12 14 18 7 14
-9 -5 -10 0 -2 24 6 16 15 28 19 25 4 -3 6 5 2 17 -3 13 -1 19 5 15 7 -5 9 1
5 15 -3 13 -1 19 5 15 6 -4 8 3 5 18 -2 14 0 25 5 25 5 0 10 12 11 28 1 15 12
35 25 45 18 14 18 16 3 11 -13 -5 -17 -3 -14 7 3 8 10 14 16 14 6 0 17 7 24
15 11 12 11 12 -4 1 -16 -12 -18 -11 -18 4 0 10 8 24 18 32 9 8 11 11 3 7 -11
-5 -13 -3 -8 10 4 10 7 22 7 27 0 6 6 7 13 3 9 -6 9 -5 -1 8 -10 12 -10 17 1
26 7 6 14 23 15 38 1 15 7 33 12 39 6 7 10 17 9 21 -3 21 2 28 11 14 6 -9 10
-10 10 -3 0 6 -4 15 -10 18 -6 4 -6 12 -1 23 14 25 25 57 35 100 3 9 5 19 6
22 1 3 2 8 1 13 0 4 4 7 10 7 5 0 8 4 5 9 -8 12 4 42 13 37 4 -3 7 5 7 17 1
41 16 87 27 80 6 -3 7 -1 3 6 -10 16 3 53 16 45 7 -4 8 -2 4 4 -4 6 -1 31 5
54 7 24 12 46 11 51 -1 4 3 7 10 7 6 0 9 3 6 6 -5 4 17 80 39 134 3 8 8 26 10
40 2 13 9 30 15 37 6 8 8 16 5 19 -3 3 3 26 13 50 11 24 18 44 16 44 -3 0 7
30 20 66 13 37 24 69 24 72 0 2 8 -2 18 -9 16 -13 16 -13 0 6 -15 18 -15 24
-2 54 8 18 14 35 14 37 0 2 -118 4 -262 4 l-263 0 -34 -108z"/>
<path d="M1667 2159 c7 -7 15 -10 18 -7 3 3 -2 9 -12 12 -14 6 -15 5 -6 -5z"/>
<path d="M1670 2119 c0 -5 5 -7 10 -4 6 3 10 8 10 11 0 2 -4 4 -10 4 -5 0 -10
-5 -10 -11z"/>
<path d="M2401 2056 c-8 -10 -9 -16 -1 -21 6 -4 9 -1 8 7 -2 7 3 12 10 10 8
-1 11 2 7 8 -8 13 -10 13 -24 -4z"/>
<path d="M1640 2040 c-9 -6 -10 -10 -3 -10 6 0 15 5 18 10 8 12 4 12 -15 0z"/>
<path d="M2406 2002 c-3 -5 1 -9 9 -9 8 0 12 4 9 9 -3 4 -7 8 -9 8 -2 0 -6 -4
-9 -8z"/>
<path d="M1603 1978 c-9 -16 -16 -54 -7 -46 3 3 6 12 8 20 1 7 5 19 9 26 5 6
6 12 3 12 -3 0 -8 -6 -13 -12z"/>
<path d="M2389 1977 c6 -8 7 -18 3 -22 -4 -5 -1 -5 6 -1 10 6 10 11 1 22 -6 8
-14 14 -16 14 -3 0 0 -6 6 -13z"/>
<path d="M2355 1919 c-4 -6 -5 -12 -2 -15 2 -3 7 2 10 11 7 17 1 20 -8 4z"/>
<path d="M2345 1820 c10 -11 20 -20 23 -20 3 0 -3 9 -13 20 -10 11 -20 20 -23
20 -3 0 3 -9 13 -20z"/>
<path d="M1535 1800 c-3 -5 -1 -10 4 -10 6 0 11 5 11 10 0 6 -2 10 -4 10 -3 0
-8 -4 -11 -10z"/>
<path d="M2295 1741 c-3 -5 -2 -12 3 -15 5 -3 9 1 9 9 0 17 -3 19 -12 6z"/>
<path d="M1505 1720 c-3 -6 1 -7 9 -4 18 7 21 14 7 14 -6 0 -13 -4 -16 -10z"/>
<path d="M1519 1698 c-5 -18 -6 -38 -1 -34 7 8 12 36 6 36 -2 0 -4 -1 -5 -2z"/>
<path d="M2296 1667 c3 -10 9 -15 12 -12 3 3 0 11 -7 18 -10 9 -11 8 -5 -6z"/>
<path d="M2273 1645 c0 -8 4 -12 9 -9 5 3 6 10 3 15 -9 13 -12 11 -12 -6z"/>
<path d="M1470 1599 c0 -5 5 -7 10 -4 6 3 10 8 10 11 0 2 -4 4 -10 4 -5 0 -10
-5 -10 -11z"/>
<path d="M2260 1606 c0 -2 8 -10 18 -17 15 -13 16 -12 3 4 -13 16 -21 21 -21
13z"/>
<path d="M2240 1586 c0 -2 8 -10 18 -17 15 -13 16 -12 3 4 -13 16 -21 21 -21
13z"/>
<path d="M1470 1540 c0 -5 5 -10 11 -10 5 0 7 5 4 10 -3 6 -8 10 -11 10 -2 0
-4 -4 -4 -10z"/>
<path d="M2236 1538 c3 -5 10 -6 15 -3 13 9 11 12 -6 12 -8 0 -12 -4 -9 -9z"/>
<path d="M2203 1438 c-11 -19 -13 -39 -1 -32 5 3 7 9 4 12 -3 3 -1 11 5 19 6
7 9 13 6 13 -3 0 -9 -6 -14 -12z"/>
<path d="M2233 1425 c0 -8 4 -12 9 -9 5 3 6 10 3 15 -9 13 -12 11 -12 -6z"/>
<path d="M1433 1389 c-2 -23 3 -25 10 -4 4 8 3 16 -1 19 -4 3 -9 -4 -9 -15z"/>
<path d="M1396 1355 c-9 -26 -7 -32 5 -12 6 10 9 21 6 23 -2 3 -7 -2 -11 -11z"/>
<path d="M1410 1319 c0 -5 5 -7 10 -4 6 3 10 8 10 11 0 2 -4 4 -10 4 -5 0 -10
-5 -10 -11z"/>
<path d="M2176 1307 c3 -10 9 -15 12 -12 3 3 0 11 -7 18 -10 9 -11 8 -5 -6z"/>
<path d="M1373 1253 c0 -9 4 -10 14 -2 7 6 13 12 13 14 0 1 -6 2 -13 2 -8 0
-14 -6 -14 -14z"/>
<path d="M2146 1238 c3 -5 10 -6 15 -3 13 9 11 12 -6 12 -8 0 -12 -4 -9 -9z"/>
<path d="M1379 1228 c-5 -18 -6 -38 -1 -34 7 8 12 36 6 36 -2 0 -4 -1 -5 -2z"/>
<path d="M2118 1172 c-11 -15 -11 -15 2 -6 8 6 23 10 33 8 11 -1 16 0 13 4
-13 12 -36 10 -48 -6z"/>
<path d="M2095 1099 c-3 -4 2 -6 10 -5 21 3 28 13 10 13 -9 0 -18 -4 -20 -8z"/>
<path d="M1355 1089 c-4 -6 -5 -12 -2 -15 2 -3 7 2 10 11 7 17 1 20 -8 4z"/>
<path d="M1316 1053 c-6 -14 -5 -15 5 -6 7 7 10 15 7 18 -3 3 -9 -2 -12 -12z"/>
<path d="M2069 1017 c6 -8 7 -18 3 -22 -4 -5 -1 -5 6 -1 10 6 10 11 1 22 -6 8
-14 14 -16 14 -3 0 0 -6 6 -13z"/>
<path d="M1279 933 c-13 -16 -12 -17 4 -4 9 7 17 15 17 17 0 8 -8 3 -21 -13z"/>
<path d="M1259 893 c-13 -16 -12 -17 3 -5 9 8 23 10 29 6 8 -4 9 -3 5 4 -10
17 -21 15 -37 -5z"/>
<path d="M1230 819 c0 -5 5 -7 10 -4 6 3 10 8 10 11 0 2 -4 4 -10 4 -5 0 -10
-5 -10 -11z"/>
<path d="M995 761 c-3 -5 -2 -12 3 -15 5 -3 9 1 9 9 0 17 -3 19 -12 6z"/>
<path d="M2634 465 c4 -36 12 -40 12 -5 0 17 -3 30 -7 30 -4 0 -6 -11 -5 -25z"/>
<path d="M2588 323 c7 -3 16 -2 19 1 4 3 -2 6 -13 5 -11 0 -14 -3 -6 -6z"/>
<path d="M2546 138 c3 -5 10 -6 15 -3 13 9 11 12 -6 12 -8 0 -12 -4 -9 -9z"/>
<path d="M1395 131 c-3 -5 -2 -12 3 -15 5 -3 9 1 9 9 0 17 -3 19 -12 6z"/>
<path d="M2075 131 c-3 -5 -2 -12 3 -15 5 -3 9 1 9 9 0 17 -3 19 -12 6z"/>
<path d="M960 120 c-9 -6 -10 -10 -3 -10 6 0 15 5 18 10 8 12 4 12 -15 0z"/>
<path d="M1765 120 c-3 -6 1 -7 9 -4 18 7 21 14 7 14 -6 0 -13 -4 -16 -10z"/>
<path d="M1845 120 c-3 -6 1 -7 9 -4 18 7 21 14 7 14 -6 0 -13 -4 -16 -10z"/>
</g>
</svg>
